<svg viewBox="0 0 109.05 22.32" xmlns="http://www.w3.org/2000/svg"><g><path fill="#1a1a1a" d="M9.08,3.27c.38-.22,1-.22,1.38,0l5.79,3.35c.38.22.69.76.69,1.2v6.69c0,.44-.31.98-.69,1.2l-5.79,3.35c-.38.22-1,.22-1.38,0l-5.79-3.35c-.38-.22-.69-.76-.69-1.2v-6.69c0-.44.31-.98.69-1.2l5.79-3.35Z"/><path fill="#1a1a1a" d="M9.42.08c.19-.11.5-.11.69,0l1.9,1.1c.19.11.35.38.35.6v2.19c0,.22-.16.49-.35.6l-1.9,1.1c-.19.11-.5.11-.69,0l-1.9-1.1c-.19-.11-.35-.38-.35-.6V1.78c0-.22.16-.49.35-.6L9.42.08Z"/><path fill="#1a1a1a" d="M16.6,12.49c.19-.11.5-.11.69,0l1.9,1.1c.19.11.35.38.35.6v2.19c0,.22-.16.49-.35.6l-1.9,1.1c-.19.11-.5.11-.69,0l-1.9-1.1c-.19-.11-.35-.38-.35-.6v-2.19c0-.22.16-.49.35-.6l1.9-1.1Z"/><path fill="#1a1a1a" d="M2.25,4.18c.19-.11.5-.11.69,0l1.9,1.1c.19.11.35.38.35.6v2.19c0,.22-.16.49-.35.6l-1.9,1.1c-.19.11-.5.11-.69,0l-1.9-1.1c-.19-.11-.35-.38-.35-.6v-2.19c0-.22.16-.49.35-.6l1.9-1.1Z"/><path fill="#1a1a1a" d="M16.6,4.18c.19-.11.5-.11.69,0l1.9,1.1c.19.11.35.38.35.6v2.19c0,.22-.16.49-.35.6l-1.9,1.1c-.19.11-.5.11-.69,0l-1.9-1.1c-.19-.11-.35-.38-.35-.6v-2.19c0-.22.16-.49.35-.6l1.9-1.1Z"/><path fill="#1a1a1a" d="M9.42,16.65c.19-.11.5-.11.69,0l1.9,1.1c.19.11.35.38.35.6v2.19c0,.22-.16.49-.35.6l-1.9,1.1c-.19.11-.5.11-.69,0l-1.9-1.1c-.19-.11-.35-.38-.35-.6v-2.19c0-.22.16-.49.35-.6l1.9-1.1Z"/><path fill="#1a1a1a" d="M2.25,12.49c.19-.11.5-.11.69,0l1.9,1.1c.19.11.35.38.35.6v2.19c0,.22-.16.49-.35.6l-1.9,1.1c-.19.11-.5.11-.69,0l-1.9-1.1c-.19-.11-.35-.38-.35-.6v-2.19c0-.22.16-.49.35-.6l1.9-1.1Z"/><path fill="#fff" d="M9.1,6.25c.36-.21.96-.21,1.32,0l3.26,1.88c.36.21.66.73.66,1.15v3.77c0,.42-.3.94-.66,1.15l-3.26,1.88c-.36.21-.96.21-1.32,0l-3.26-1.88c-.36-.21-.66-.73-.66-1.15v-3.77c0-.42.3-.94.66-1.15l3.26-1.88Z"/><path fill="#F8CE00" d="M9.76,1.04s.01,0,.02,0l1.58.91s0,0,0,.01v1.82s0,.01,0,.01l-1.58.91s-.01,0-.02,0l-1.58-.91s0,0,0-.01v-1.82s0-.01,0-.01l1.58-.91Z"/><path fill="#A2FFA2" d="M2.58,5.14s.01,0,.02,0l1.58.91s0,0,0,.01v1.82s0,.01,0,.01l-1.58.91s-.01,0-.02,0l-1.58-.91s0,0,0-.01v-1.82s0-.01,0-.01l1.58-.91Z"/><path fill="#4E04EB" d="M16.93,5.14s.01,0,.02,0l1.58.91s0,0,0,.01v1.82s0,.01,0,.01l-1.58.91s-.01,0-.02,0l-1.58-.91s0,0,0-.01v-1.82s0-.01,0-.01l1.58-.91Z"/><path fill="#4E04EB" d="M9.76,17.61s.01,0,.02,0l1.58.91s0,0,0,.01v1.82s0,.01,0,.01l-1.58.91s-.01,0-.02,0l-1.58-.91s0,0,0-.01v-1.82s0-.01,0-.01l1.58-.91Z"/><path fill="#F8CE00" d="M2.58,13.45s.01,0,.02,0l1.58.91s0,0,0,.01v1.82s0,.01,0,.01l-1.58.91s-.01,0-.02,0l-1.58-.91s0,0,0-.01v-1.82s0-.01,0-.01l1.58-.91Z"/><path fill="#A2FFA2" d="M16.93,13.45s.01,0,.02,0l1.58.91s0,0,0,.01v1.82s0,.01,0,.01l-1.58.91s-.01,0-.02,0l-1.58-.91s0,0,0-.01v-1.82s0-.01,0-.01l1.58-.91Z"/></g><text font-family="Futura,'Century Gothic',system-ui,sans-serif" font-size="15.36" font-weight="500" transform="translate(23.89 15.47)"><tspan x="0" y="0">asterisk labs</tspan></text></svg>