<svg xmlns="http://www.w3.org/2000/svg" viewBox="0 0 1600 500" role="img" aria-label="cozip — Cloud Optimized ZIP banner">
  <defs>
    <style>
      @import url('https://fonts.googleapis.com/css2?family=Outfit:wght@400;500;600;700;800;900&amp;display=swap');
      .outlined {
        font-family: Outfit, sans-serif;
        fill: #1a1a1a;
        stroke: #ffffff;
        paint-order: stroke fill;
        stroke-linejoin: round;
        stroke-linecap: round;
      }
    </style>
    <filter id="softShadow" x="-25%" y="-25%" width="150%" height="150%">
      <feDropShadow dx="0" dy="8" stdDeviation="7" flood-color="#0b2340" flood-opacity="0.22"/>
    </filter>
  </defs>

  <!-- =================== CLOUD + ZIP ICON (scale 1.8 = matches text block height) =================== -->
  <g transform="translate(40, 30) scale(1.8)">
    <g filter="url(#softShadow)" stroke-linecap="round" stroke-linejoin="round">
      <path
        d="M 67 213 C 45 213 29 185 45 163 C 29 128 55 78 95 93 C 105 43 165 43 175 93 C 207 78 227 118 215 163 C 227 185 217 213 195 213 Z"
        fill="#ffffff" stroke="#ffffff" stroke-width="22"/>
      <path
        d="M 67 213 C 45 213 29 185 45 163 C 29 128 55 78 95 93 C 105 43 165 43 175 93 C 207 78 227 118 215 163 C 227 185 217 213 195 213 Z"
        fill="#B8E6FF" stroke="#143A63" stroke-width="8"/>

      <g transform="translate(71 128) scale(2.05) rotate(-5 28 28)">
        <path
          d="M36.985,0H7.963C7.155,0,6.5,0.655,6.5,1.926V55c0,0.345,0.655,1,1.463,1h40.074c0.808,0,1.463-0.655,1.463-1V12.978c0-0.696-0.093-0.92-0.257-1.085L37.607,0.257C37.442,0.093,37.218,0,36.985,0z"
          fill="#ffffff" stroke="#ffffff" stroke-width="7"/>
      </g>
      <g transform="translate(71 128) scale(2.05) rotate(-5 28 28)">
        <path fill="#F4F7F2" d="M36.985,0H7.963C7.155,0,6.5,0.655,6.5,1.926V55c0,0.345,0.655,1,1.463,1h40.074c0.808,0,1.463-0.655,1.463-1V12.978c0-0.696-0.093-0.92-0.257-1.085L37.607,0.257C37.442,0.093,37.218,0,36.985,0z"/>
        <polygon fill="#D9E1E2" points="37.5,0.151 37.5,12 49.349,12"/>
        <path fill="#204A78" d="M48.037,56H7.963C7.155,56,6.5,55.345,6.5,54.537V39h43v15.537C49.5,55.345,48.845,56,48.037,56z"/>
        <g fill="#FFFFFF">
          <path d="M25.266,42.924v1.326l-4.799,7.205l-0.273,0.219h5.072V53h-6.699v-1.326l4.799-7.205l0.287-0.219h-5.086v-1.326H25.266z"/>
          <path d="M29.271,53h-1.668V42.924h1.668V53z"/>
          <path d="M33.414,53h-1.641V42.924h2.898c0.428,0,0.852,0.068,1.271,0.205c0.419,0.137,0.795,0.342,1.128,0.615c0.333,0.273,0.602,0.604,0.807,0.991s0.308,0.822,0.308,1.306c0,0.511-0.087,0.973-0.26,1.388c-0.173,0.415-0.415,0.764-0.725,1.046c-0.31,0.282-0.684,0.501-1.121,0.656s-0.921,0.232-1.449,0.232h-1.217V53z M33.414,44.168v3.992h1.504c0.2,0,0.398-0.034,0.595-0.103c0.196-0.068,0.376-0.18,0.54-0.335s0.296-0.371,0.396-0.649c0.1-0.278,0.15-0.622,0.15-1.032c0-0.164-0.023-0.354-0.068-0.567c-0.046-0.214-0.139-0.419-0.28-0.615c-0.142-0.196-0.34-0.36-0.595-0.492c-0.255-0.132-0.593-0.198-1.012-0.198H33.414z"/>
        </g>
        <g fill="#C8BDB8">
          <path d="M28.5,24v-2h2v-2h-2v-2h2v-2h-2v-2h2v-2h-2v-2h2V8h-2V6h-2v2h-2v2h2v2h-2v2h2v2h-2v2h2v2h-2v2h2v2h-4v5c0,2.757,2.243,5,5,5s5-2.243,5-5v-5H28.5z M30.5,29c0,1.654-1.346,3-3,3s-3-1.346-3-3v-3h6V29z"/>
          <path d="M26.5,30h2c0.552,0,1-0.447,1-1s-0.448-1-1-1h-2c-0.552,0-1,0.447-1,1S25.948,30,26.5,30z"/>
        </g>
        <path
          d="M36.985,0H7.963C7.155,0,6.5,0.655,6.5,1.926V55c0,0.345,0.655,1,1.463,1h40.074c0.808,0,1.463-0.655,1.463-1V12.978c0-0.696-0.093-0.92-0.257-1.085L37.607,0.257C37.442,0.093,37.218,0,36.985,0z"
          fill="none" stroke="#143A63" stroke-width="2.8"/>
      </g>
    </g>
  </g>

  <!-- =================== TITLE: cozip — top aligned with cloud top (y=87.6) =================== -->
  <text class="outlined" x="510" y="230" font-size="200" font-weight="500" stroke-width="10">cozip</text>

  <!-- =================== SUBTITLE: Cloud Optimized ZIP =================== -->
  <text class="outlined" x="510" y="350" font-size="74" stroke-width="4.5">
    <tspan font-weight="600">C</tspan><tspan font-weight="400">loud </tspan><tspan font-weight="600">O</tspan><tspan font-weight="400">ptimized </tspan><tspan font-weight="600">ZIP</tspan>
  </text>

  <!-- =================== TAGLINE: Open a ZIP like a table =================== -->
  <text class="outlined" x="510" y="412" font-size="44" font-style="italic" font-weight="500" stroke-width="3.5">Open a ZIP like a table</text>

  <!-- =================== BY ASTERISK LABS — bottom aligned with ZIP bottom (y=473.7) =================== -->
  <g transform="translate(1213, 432) scale(1.85)">
    <text font-family="Outfit, sans-serif" font-size="15.36" font-weight="600" fill="#1a1a1a" stroke="#ffffff" stroke-width="0.7" paint-order="stroke fill" stroke-linejoin="round" transform="translate(0 15.47)"><tspan x="0" y="0">by</tspan></text>

    <g transform="translate(22 0)">
      <path fill="#1a1a1a" stroke="#ffffff" stroke-width="0.4" paint-order="stroke fill" stroke-linejoin="round" d="M9.08,3.27c.38-.22,1-.22,1.38,0l5.79,3.35c.38.22.69.76.69,1.2v6.69c0,.44-.31.98-.69,1.2l-5.79,3.35c-.38.22-1,.22-1.38,0l-5.79-3.35c-.38-.22-.69-.76-.69-1.2v-6.69c0-.44.31-.98.69-1.2l5.79-3.35Z"/>
      <path fill="#1a1a1a" d="M9.42.08c.19-.11.5-.11.69,0l1.9,1.1c.19.11.35.38.35.6v2.19c0,.22-.16.49-.35.6l-1.9,1.1c-.19.11-.5.11-.69,0l-1.9-1.1c-.19-.11-.35-.38-.35-.6V1.78c0-.22.16-.49.35-.6L9.42.08Z"/>
      <path fill="#1a1a1a" d="M16.6,12.49c.19-.11.5-.11.69,0l1.9,1.1c.19.11.35.38.35.6v2.19c0,.22-.16.49-.35.6l-1.9,1.1c-.19.11-.5.11-.69,0l-1.9-1.1c-.19-.11-.35-.38-.35-.6v-2.19c0-.22.16-.49.35-.6l1.9-1.1Z"/>
      <path fill="#1a1a1a" d="M2.25,4.18c.19-.11.5-.11.69,0l1.9,1.1c.19.11.35.38.35.6v2.19c0,.22-.16.49-.35.6l-1.9,1.1c-.19.11-.5.11-.69,0l-1.9-1.1c-.19-.11-.35-.38-.35-.6v-2.19c0-.22.16-.49.35-.6l1.9-1.1Z"/>
      <path fill="#1a1a1a" d="M16.6,4.18c.19-.11.5-.11.69,0l1.9,1.1c.19.11.35.38.35.6v2.19c0,.22-.16.49-.35.6l-1.9,1.1c-.19.11-.5.11-.69,0l-1.9-1.1c-.19-.11-.35-.38-.35-.6v-2.19c0-.22.16-.49.35-.6l1.9-1.1Z"/>
      <path fill="#1a1a1a" d="M9.42,16.65c.19-.11.5-.11.69,0l1.9,1.1c.19.11.35.38.35.6v2.19c0,.22-.16.49-.35.6l-1.9,1.1c-.19.11-.5.11-.69,0l-1.9-1.1c-.19-.11-.35-.38-.35-.6v-2.19c0-.22.16-.49.35-.6l1.9-1.1Z"/>
      <path fill="#1a1a1a" d="M2.25,12.49c.19-.11.5-.11.69,0l1.9,1.1c.19.11.35.38.35.6v2.19c0,.22-.16.49-.35.6l-1.9,1.1c-.19.11-.5.11-.69,0l-1.9-1.1c-.19-.11-.35-.38-.35-.6v-2.19c0-.22.16-.49.35-.6l1.9-1.1Z"/>
      <path fill="#fff" d="M9.1,6.25c.36-.21.96-.21,1.32,0l3.26,1.88c.36.21.66.73.66,1.15v3.77c0,.42-.3.94-.66,1.15l-3.26,1.88c-.36.21-.96.21-1.32,0l-3.26-1.88c-.36-.21-.66-.73-.66-1.15v-3.77c0-.42.3-.94.66-1.15l3.26-1.88Z"/>
      <path fill="#F8CE00" d="M9.76,1.04s.01,0,.02,0l1.58.91s0,0,0,.01v1.82s0,.01,0,.01l-1.58.91s-.01,0-.02,0l-1.58-.91s0,0,0-.01v-1.82s0-.01,0-.01l1.58-.91Z"/>
      <path fill="#A2FFA2" d="M2.58,5.14s.01,0,.02,0l1.58.91s0,0,0,.01v1.82s0,.01,0,.01l-1.58.91s-.01,0-.02,0l-1.58-.91s0,0,0-.01v-1.82s0-.01,0-.01l1.58-.91Z"/>
      <path fill="#4E04EB" d="M16.93,5.14s.01,0,.02,0l1.58.91s0,0,0,.01v1.82s0,.01,0,.01l-1.58.91s-.01,0-.02,0l-1.58-.91s0,0,0-.01v-1.82s0-.01,0-.01l1.58-.91Z"/>
      <path fill="#4E04EB" d="M9.76,17.61s.01,0,.02,0l1.58.91s0,0,0,.01v1.82s0,.01,0,.01l-1.58.91s-.01,0-.02,0l-1.58-.91s0,0,0-.01v-1.82s0-.01,0-.01l1.58-.91Z"/>
      <path fill="#F8CE00" d="M2.58,13.45s.01,0,.02,0l1.58.91s0,0,0,.01v1.82s0,.01,0,.01l-1.58.91s-.01,0-.02,0l-1.58-.91s0,0,0-.01v-1.82s0-.01,0-.01l1.58-.91Z"/>
      <path fill="#A2FFA2" d="M16.93,13.45s.01,0,.02,0l1.58.91s0,0,0,.01v1.82s0,.01,0,.01l-1.58.91s-.01,0-.02,0l-1.58-.91s0,0,0-.01v-1.82s0-.01,0-.01l1.58-.91Z"/>
      <text font-family="Outfit, sans-serif" font-size="15.36" font-weight="600" fill="#1a1a1a" stroke="#ffffff" stroke-width="0.7" paint-order="stroke fill" stroke-linejoin="round" transform="translate(23.89 15.47)"><tspan x="0" y="0">asterisk labs</tspan></text>
    </g>
  </g>
</svg>