<svg xmlns="http://www.w3.org/2000/svg" viewBox="0 0 256 256" width="256" height="256" role="img" aria-label="cozip logo">
  <defs>
    <filter id="softShadow" x="-25%" y="-25%" width="150%" height="150%">
      <feDropShadow dx="0" dy="6" stdDeviation="6" flood-color="#0b2340" flood-opacity="0.22"/>
    </filter>
  </defs>
  <g filter="url(#softShadow)" stroke-linecap="round" stroke-linejoin="round">

    <!-- ============ CLOUD: square proportions (taller, narrower) ============ -->
    <!-- White sticker outline -->
    <path
      d="M 67 213
         C 45 213 29 185 45 163
         C 29 128 55 78 95 93
         C 105 43 165 43 175 93
         C 207 78 227 118 215 163
         C 227 185 217 213 195 213
         Z"
      fill="#ffffff"
      stroke="#ffffff"
      stroke-width="22"
    />

    <!-- Cloud fill + dark outline -->
    <path
      d="M 67 213
         C 45 213 29 185 45 163
         C 29 128 55 78 95 93
         C 105 43 165 43 175 93
         C 207 78 227 118 215 163
         C 227 185 217 213 195 213
         Z"
      fill="#B8E6FF"
      stroke="#143A63"
      stroke-width="8"
    />


    <!-- ============ ZIP file (repositioned for square balance) ============ -->
    <!-- ZIP white sticker outline -->
    <g transform="translate(71 128) scale(2.05) rotate(-5 28 28)">
      <path
        d="M36.985,0H7.963C7.155,0,6.5,0.655,6.5,1.926V55c0,0.345,0.655,1,1.463,1h40.074
        c0.808,0,1.463-0.655,1.463-1V12.978c0-0.696-0.093-0.92-0.257-1.085L37.607,0.257
        C37.442,0.093,37.218,0,36.985,0z"
        fill="#ffffff"
        stroke="#ffffff"
        stroke-width="7"
      />
    </g>
    <!-- ZIP icon -->
    <g transform="translate(71 128) scale(2.05) rotate(-5 28 28)">
      <path fill="#F4F7F2" d="M36.985,0H7.963C7.155,0,6.5,0.655,6.5,1.926V55c0,0.345,0.655,1,1.463,1h40.074
        c0.808,0,1.463-0.655,1.463-1V12.978c0-0.696-0.093-0.92-0.257-1.085L37.607,0.257
        C37.442,0.093,37.218,0,36.985,0z"/>
      <polygon fill="#D9E1E2" points="37.5,0.151 37.5,12 49.349,12"/>
      <path fill="#204A78" d="M48.037,56H7.963C7.155,56,6.5,55.345,6.5,54.537V39h43v15.537
        C49.5,55.345,48.845,56,48.037,56z"/>
      <g fill="#FFFFFF">
        <path d="M25.266,42.924v1.326l-4.799,7.205l-0.273,0.219h5.072V53h-6.699v-1.326l4.799-7.205l0.287-0.219
          h-5.086v-1.326H25.266z"/>
        <path d="M29.271,53h-1.668V42.924h1.668V53z"/>
        <path d="M33.414,53h-1.641V42.924h2.898c0.428,0,0.852,0.068,1.271,0.205
          c0.419,0.137,0.795,0.342,1.128,0.615c0.333,0.273,0.602,0.604,0.807,0.991s0.308,0.822,0.308,1.306
          c0,0.511-0.087,0.973-0.26,1.388c-0.173,0.415-0.415,0.764-0.725,1.046c-0.31,0.282-0.684,0.501-1.121,0.656
          s-0.921,0.232-1.449,0.232h-1.217V53z M33.414,44.168v3.992h1.504c0.2,0,0.398-0.034,0.595-0.103
          c0.196-0.068,0.376-0.18,0.54-0.335s0.296-0.371,0.396-0.649c0.1-0.278,0.15-0.622,0.15-1.032
          c0-0.164-0.023-0.354-0.068-0.567c-0.046-0.214-0.139-0.419-0.28-0.615
          c-0.142-0.196-0.34-0.36-0.595-0.492c-0.255-0.132-0.593-0.198-1.012-0.198H33.414z"/>
      </g>
      <g fill="#C8BDB8">
        <path d="M28.5,24v-2h2v-2h-2v-2h2v-2h-2v-2h2v-2h-2v-2h2V8h-2V6h-2v2h-2v2h2v2h-2v2h2v2h-2v2h2v2h-2v2h2v2
          h-4v5c0,2.757,2.243,5,5,5s5-2.243,5-5v-5H28.5z M30.5,29c0,1.654-1.346,3-3,3s-3-1.346-3-3v-3h6V29z"/>
        <path d="M26.5,30h2c0.552,0,1-0.447,1-1s-0.448-1-1-1h-2c-0.552,0-1,0.447-1,1S25.948,30,26.5,30z"/>
      </g>
      <path
        d="M36.985,0H7.963C7.155,0,6.5,0.655,6.5,1.926V55c0,0.345,0.655,1,1.463,1h40.074
        c0.808,0,1.463-0.655,1.463-1V12.978c0-0.696-0.093-0.92-0.257-1.085L37.607,0.257
        C37.442,0.093,37.218,0,36.985,0z"
        fill="none"
        stroke="#143A63"
        stroke-width="2.8"
      />
    </g>
  </g>
</svg>